<svg xmlns="http://www.w3.org/2000/svg" viewBox="0 0 800 400" fill="none">
  <rect width="800" height="400" fill="#0d1117"/>
  <g stroke="rgba(178,221,76,0.04)" stroke-width="1">
    <line x1="0" y1="100" x2="800" y2="100"/><line x1="0" y1="200" x2="800" y2="200"/><line x1="0" y1="300" x2="800" y2="300"/>
    <line x1="200" y1="0" x2="200" y2="400"/><line x1="400" y1="0" x2="400" y2="400"/><line x1="600" y1="0" x2="600" y2="400"/>
  </g>
  <circle cx="400" cy="170" r="120" fill="rgba(178,221,76,0.06)"/>
  <text x="400" y="155" text-anchor="middle" fill="#b2dd4c" font-family="Inter,system-ui,sans-serif" font-size="48" font-weight="800" letter-spacing="-2">DataFor</text>
  <text x="400" y="200" text-anchor="middle" fill="#ffffff" font-family="Inter,system-ui,sans-serif" font-size="48" font-weight="800" letter-spacing="-2">SEO</text>
  <g fill="#b2dd4c">
    <circle cx="180" cy="120" r="3" opacity="0.4"/><circle cx="220" cy="90" r="2" opacity="0.3"/>
    <circle cx="580" cy="100" r="3" opacity="0.4"/><circle cx="620" cy="130" r="2" opacity="0.3"/>
  </g>
  <g font-family="Inter,system-ui,sans-serif" font-size="11" font-weight="600">
    <rect x="160" y="240" width="90" height="28" rx="14" fill="rgba(178,221,76,0.1)" stroke="#b2dd4c" stroke-width="1" stroke-opacity="0.2"/>
    <text x="205" y="258" text-anchor="middle" fill="#b2dd4c" opacity="0.7">SERP API</text>
    <rect x="270" y="240" width="110" height="28" rx="14" fill="rgba(178,221,76,0.1)" stroke="#b2dd4c" stroke-width="1" stroke-opacity="0.2"/>
    <text x="325" y="258" text-anchor="middle" fill="#b2dd4c" opacity="0.7">Keywords</text>
    <rect x="400" y="240" width="110" height="28" rx="14" fill="rgba(178,221,76,0.1)" stroke="#b2dd4c" stroke-width="1" stroke-opacity="0.2"/>
    <text x="455" y="258" text-anchor="middle" fill="#b2dd4c" opacity="0.7">Backlinks</text>
    <rect x="530" y="240" width="110" height="28" rx="14" fill="rgba(178,221,76,0.1)" stroke="#b2dd4c" stroke-width="1" stroke-opacity="0.2"/>
    <text x="585" y="258" text-anchor="middle" fill="#b2dd4c" opacity="0.7">On-Page</text>
  </g>
  <text x="400" y="320" text-anchor="middle" fill="rgba(255,255,255,0.35)" font-family="Inter,system-ui,sans-serif" font-size="14" font-weight="500">L'API qui alimente vos outils SEO</text>
</svg>
