<svg width="800" height="440" viewBox="0 0 800 440" fill="none" xmlns="http://www.w3.org/2000/svg">
  <rect width="800" height="440" rx="24" fill="#07090C"/>
  <rect x="24" y="24" width="752" height="48" rx="12" fill="#10141A" stroke="#1B2430"/>
  <circle cx="52" cy="48" r="6" fill="#FFE600"/>
  <text x="84" y="54" fill="#DDE2EA" font-size="18" font-family="Arial, sans-serif">Tracking GEO: Mentions, Citations, SOV</text>

  <rect x="32" y="92" width="736" height="118" rx="16" fill="#0D131A" stroke="#212A36"/>
  <rect x="52" y="112" width="164" height="78" rx="12" fill="#101822" stroke="#283344"/>
  <rect x="232" y="112" width="164" height="78" rx="12" fill="#101822" stroke="#283344"/>
  <rect x="412" y="112" width="164" height="78" rx="12" fill="#101822" stroke="#283344"/>
  <rect x="592" y="112" width="156" height="78" rx="12" fill="#101822" stroke="#283344"/>
  <text x="66" y="140" fill="#9DACBE" font-size="12" font-family="Arial, sans-serif">Mention rate</text>
  <text x="66" y="168" fill="#FFE600" font-size="24" font-family="Arial, sans-serif">+48%</text>
  <text x="246" y="140" fill="#9DACBE" font-size="12" font-family="Arial, sans-serif">Citation rate</text>
  <text x="246" y="168" fill="#FFE600" font-size="24" font-family="Arial, sans-serif">+31%</text>
  <text x="426" y="140" fill="#9DACBE" font-size="12" font-family="Arial, sans-serif">Share of voice GEO</text>
  <text x="426" y="168" fill="#FFE600" font-size="24" font-family="Arial, sans-serif">19.2%</text>
  <text x="606" y="140" fill="#9DACBE" font-size="12" font-family="Arial, sans-serif">Sources citees</text>
  <text x="606" y="168" fill="#FFE600" font-size="24" font-family="Arial, sans-serif">126</text>

  <rect x="32" y="228" width="476" height="188" rx="16" fill="#0D131A" stroke="#212A36"/>
  <text x="56" y="262" fill="#C8D0DB" font-size="14" font-family="Arial, sans-serif">Tendance mentions/citations (30 jours)</text>
  <line x1="56" y1="388" x2="488" y2="388" stroke="#2E3948"/>
  <polyline points="56,356 104,338 152,330 200,314 248,298 296,286 344,262 392,244 440,226 488,198" fill="none" stroke="#FFE600" stroke-width="4"/>

  <rect x="528" y="228" width="240" height="188" rx="16" fill="#0D131A" stroke="#212A36"/>
  <text x="552" y="262" fill="#C8D0DB" font-size="14" font-family="Arial, sans-serif">Part par moteur</text>
  <rect x="552" y="280" width="190" height="14" rx="7" fill="#1E2734"/>
  <rect x="552" y="280" width="120" height="14" rx="7" fill="#FFE600"/>
  <text x="552" y="304" fill="#9DACBE" font-size="12" font-family="Arial, sans-serif">ChatGPT 63%</text>
  <rect x="552" y="320" width="190" height="14" rx="7" fill="#1E2734"/>
  <rect x="552" y="320" width="92" height="14" rx="7" fill="#E2C900"/>
  <text x="552" y="344" fill="#9DACBE" font-size="12" font-family="Arial, sans-serif">Gemini 48%</text>
  <rect x="552" y="360" width="190" height="14" rx="7" fill="#1E2734"/>
  <rect x="552" y="360" width="74" height="14" rx="7" fill="#A0C900"/>
  <text x="552" y="384" fill="#9DACBE" font-size="12" font-family="Arial, sans-serif">Perplexity 39%</text>
</svg>
