<svg width="800" height="440" viewBox="0 0 800 440" fill="none" xmlns="http://www.w3.org/2000/svg">
  <rect width="800" height="440" rx="24" fill="#07090C"/>
  <rect x="24" y="24" width="752" height="48" rx="12" fill="#10141A" stroke="#1B2430"/>
  <circle cx="52" cy="48" r="6" fill="#FFE600"/>
  <text x="84" y="54" fill="#DDE2EA" font-size="18" font-family="Arial, sans-serif">Query Fan-out &amp; Intent Coverage</text>

  <rect x="32" y="92" width="736" height="324" rx="16" fill="#0D131A" stroke="#212A36"/>
  <rect x="56" y="118" width="338" height="274" rx="12" fill="#101822" stroke="#273344"/>
  <text x="80" y="148" fill="#C8D0DB" font-size="14" font-family="Arial, sans-serif">Prompt set principal</text>
  <rect x="80" y="166" width="290" height="36" rx="8" fill="#FFE600" fill-opacity="0.16" stroke="#FFE600"/>
  <text x="94" y="188" fill="#E3E9F1" font-size="12" font-family="Arial, sans-serif">1) Prompt coeur: \"strategie GEO B2B\"</text>
  <rect x="80" y="214" width="290" height="40" rx="8" fill="#111C27" stroke="#2A3544"/>
  <text x="94" y="238" fill="#A9B5C4" font-size="12" font-family="Arial, sans-serif">2) Variation angle budget / ROI</text>
  <rect x="80" y="266" width="290" height="40" rx="8" fill="#111C27" stroke="#2A3544"/>
  <text x="94" y="290" fill="#A9B5C4" font-size="12" font-family="Arial, sans-serif">3) Variation comparaison outils</text>
  <rect x="80" y="318" width="290" height="40" rx="8" fill="#111C27" stroke="#2A3544"/>
  <text x="94" y="342" fill="#A9B5C4" font-size="12" font-family="Arial, sans-serif">4) Variation how-to / checklist</text>

  <rect x="414" y="118" width="330" height="124" rx="12" fill="#101822" stroke="#273344"/>
  <text x="438" y="148" fill="#C8D0DB" font-size="14" font-family="Arial, sans-serif">Coverage multi-intentions</text>
  <text x="438" y="176" fill="#A4B0BF" font-size="12" font-family="Arial, sans-serif">Informationnelle / transactionnelle / brand</text>
  <text x="438" y="198" fill="#A4B0BF" font-size="12" font-family="Arial, sans-serif">One-shot et multi-turn alignes</text>
  <text x="438" y="220" fill="#A4B0BF" font-size="12" font-family="Arial, sans-serif">Gaps identifies par cluster</text>

  <rect x="414" y="260" width="330" height="132" rx="12" fill="#101822" stroke="#273344"/>
  <text x="438" y="290" fill="#C8D0DB" font-size="14" font-family="Arial, sans-serif">Fan-out performance</text>
  <rect x="438" y="306" width="282" height="12" rx="6" fill="#1E2734"/>
  <rect x="438" y="306" width="230" height="12" rx="6" fill="#FFE600"/>
  <text x="438" y="332" fill="#A5B1C0" font-size="12" font-family="Arial, sans-serif">Coverage prompts: 81%</text>
  <text x="438" y="356" fill="#A5B1C0" font-size="12" font-family="Arial, sans-serif">Prompts resolus sans gap: +37%</text>
</svg>
