<svg width="800" height="440" viewBox="0 0 800 440" fill="none" xmlns="http://www.w3.org/2000/svg">
  <rect width="800" height="440" rx="24" fill="#07090C"/>
  <rect x="24" y="24" width="752" height="48" rx="12" fill="#10141A" stroke="#1B2430"/>
  <circle cx="52" cy="48" r="6" fill="#FFE600"/>
  <text x="84" y="54" fill="#DDE2EA" font-size="18" font-family="Arial, sans-serif">Architecture en Chunks</text>

  <rect x="32" y="92" width="736" height="324" rx="16" fill="#0D131A" stroke="#212A36"/>
  <rect x="60" y="118" width="200" height="52" rx="12" fill="#FFE600"/>
  <text x="92" y="149" fill="#0E1217" font-size="14" font-family="Arial, sans-serif">Page pivot</text>
  <text x="80" y="194" fill="#A7B3C2" font-size="13" font-family="Arial, sans-serif">\"Guide GEO 2026\"</text>

  <line x1="260" y1="144" x2="404" y2="96" stroke="#FFE600" stroke-width="2" stroke-dasharray="6 6"/>
  <line x1="260" y1="144" x2="404" y2="168" stroke="#FFE600" stroke-width="2" stroke-dasharray="6 6"/>
  <line x1="260" y1="144" x2="404" y2="240" stroke="#FFE600" stroke-width="2" stroke-dasharray="6 6"/>
  <line x1="260" y1="144" x2="404" y2="312" stroke="#FFE600" stroke-width="2" stroke-dasharray="6 6"/>

  <rect x="416" y="76" width="320" height="54" rx="10" fill="#101822" stroke="#273344"/>
  <rect x="416" y="148" width="320" height="54" rx="10" fill="#101822" stroke="#273344"/>
  <rect x="416" y="220" width="320" height="54" rx="10" fill="#101822" stroke="#273344"/>
  <rect x="416" y="292" width="320" height="54" rx="10" fill="#101822" stroke="#273344"/>
  <text x="438" y="108" fill="#D8DFE8" font-size="13" font-family="Arial, sans-serif">Chunk 1: reponse courte (40-60 mots)</text>
  <text x="438" y="180" fill="#D8DFE8" font-size="13" font-family="Arial, sans-serif">Chunk 2: preuve + source verifiable</text>
  <text x="438" y="252" fill="#D8DFE8" font-size="13" font-family="Arial, sans-serif">Chunk 3: exemple concret / cas usage</text>
  <text x="438" y="324" fill="#D8DFE8" font-size="13" font-family="Arial, sans-serif">Chunk 4: FAQ et metadata schema</text>

  <rect x="60" y="240" width="320" height="150" rx="12" fill="#101822" stroke="#273344"/>
  <text x="84" y="270" fill="#C8D0DB" font-size="14" font-family="Arial, sans-serif">Chunk quality score</text>
  <rect x="84" y="286" width="272" height="12" rx="6" fill="#1E2734"/>
  <rect x="84" y="286" width="226" height="12" rx="6" fill="#FFE600"/>
  <text x="84" y="320" fill="#A3AFBE" font-size="13" font-family="Arial, sans-serif">Pages chunkees: 148</text>
  <text x="84" y="346" fill="#A3AFBE" font-size="13" font-family="Arial, sans-serif">Chunks exploitables par LLM: 119</text>
</svg>
