<svg width="800" height="440" viewBox="0 0 800 440" fill="none" xmlns="http://www.w3.org/2000/svg">
  <rect width="800" height="440" rx="24" fill="#07090C"/>
  <rect x="24" y="24" width="752" height="48" rx="12" fill="#10141A" stroke="#1B2430"/>
  <circle cx="52" cy="48" r="6" fill="#FFE600"/>
  <circle cx="72" cy="48" r="6" fill="#3A4250"/>
  <circle cx="92" cy="48" r="6" fill="#3A4250"/>
  <text x="118" y="54" fill="#DDE2EA" font-size="18" font-family="Arial, sans-serif">Architecture &amp; Clusters</text>

  <rect x="32" y="92" width="736" height="324" rx="16" fill="#0D131A" stroke="#212A36"/>
  <rect x="324" y="112" width="152" height="40" rx="10" fill="#FFE600"/>
  <text x="349" y="137" fill="#0F1318" font-size="15" font-family="Arial, sans-serif">Pillar SEO</text>

  <line x1="400" y1="152" x2="196" y2="214" stroke="#3B4757" stroke-width="2"/>
  <line x1="400" y1="152" x2="400" y2="214" stroke="#3B4757" stroke-width="2"/>
  <line x1="400" y1="152" x2="604" y2="214" stroke="#3B4757" stroke-width="2"/>

  <rect x="126" y="194" width="140" height="36" rx="9" fill="#111A24" stroke="#2A3645"/>
  <rect x="330" y="194" width="140" height="36" rx="9" fill="#111A24" stroke="#2A3645"/>
  <rect x="534" y="194" width="140" height="36" rx="9" fill="#111A24" stroke="#2A3645"/>
  <text x="152" y="217" fill="#D8DFE8" font-size="13" font-family="Arial, sans-serif">Cluster A</text>
  <text x="356" y="217" fill="#D8DFE8" font-size="13" font-family="Arial, sans-serif">Cluster B</text>
  <text x="560" y="217" fill="#D8DFE8" font-size="13" font-family="Arial, sans-serif">Cluster C</text>

  <rect x="72" y="262" width="656" height="132" rx="12" fill="#101822" stroke="#253141"/>
  <text x="96" y="292" fill="#C9D1DC" font-size="14" font-family="Arial, sans-serif">Intent mapping</text>
  <rect x="96" y="308" width="604" height="12" rx="6" fill="#1E2734"/>
  <rect x="96" y="308" width="482" height="12" rx="6" fill="#FFE600"/>
  <text x="96" y="340" fill="#96A4B6" font-size="12" font-family="Arial, sans-serif">Pages strategiques couvrant 82% de la demande business</text>
  <text x="96" y="362" fill="#96A4B6" font-size="12" font-family="Arial, sans-serif">Maillage interne planifie sur 3 niveaux de profondeur</text>
</svg>
