<svg width="800" height="440" viewBox="0 0 800 440" fill="none" xmlns="http://www.w3.org/2000/svg">
  <rect width="800" height="440" rx="24" fill="#07090C"/>
  <rect x="24" y="24" width="752" height="48" rx="12" fill="#10141A" stroke="#1B2430"/>
  <circle cx="52" cy="48" r="6" fill="#FFE600"/>
  <circle cx="72" cy="48" r="6" fill="#3A4250"/>
  <circle cx="92" cy="48" r="6" fill="#3A4250"/>
  <text x="118" y="54" fill="#DDE2EA" font-size="18" font-family="Arial, sans-serif">Pilotage &amp; Scaling</text>

  <rect x="32" y="92" width="736" height="118" rx="16" fill="#0D131A" stroke="#212A36"/>
  <rect x="52" y="112" width="164" height="78" rx="12" fill="#101822" stroke="#283344"/>
  <rect x="232" y="112" width="164" height="78" rx="12" fill="#101822" stroke="#283344"/>
  <rect x="412" y="112" width="164" height="78" rx="12" fill="#101822" stroke="#283344"/>
  <rect x="592" y="112" width="156" height="78" rx="12" fill="#101822" stroke="#283344"/>
  <text x="68" y="140" fill="#9DAABC" font-size="12" font-family="Arial, sans-serif">Trafic organique</text>
  <text x="68" y="168" fill="#FFE600" font-size="24" font-family="Arial, sans-serif">+34%</text>
  <text x="248" y="140" fill="#9DAABC" font-size="12" font-family="Arial, sans-serif">Leads SEO</text>
  <text x="248" y="168" fill="#FFE600" font-size="24" font-family="Arial, sans-serif">+27%</text>
  <text x="428" y="140" fill="#9DAABC" font-size="12" font-family="Arial, sans-serif">Revenus attribues</text>
  <text x="428" y="168" fill="#FFE600" font-size="24" font-family="Arial, sans-serif">+22%</text>
  <text x="608" y="140" fill="#9DAABC" font-size="12" font-family="Arial, sans-serif">ROI moyen</text>
  <text x="608" y="168" fill="#FFE600" font-size="24" font-family="Arial, sans-serif">4.1x</text>

  <rect x="32" y="228" width="476" height="188" rx="16" fill="#0D131A" stroke="#212A36"/>
  <text x="56" y="262" fill="#C8D0DB" font-size="14" font-family="Arial, sans-serif">Evolution trimestrielle</text>
  <line x1="56" y1="388" x2="488" y2="388" stroke="#2E3948"/>
  <polyline points="56,356 104,346 152,334 200,320 248,292 296,284 344,264 392,238 440,214 488,194" fill="none" stroke="#FFE600" stroke-width="4"/>

  <rect x="528" y="228" width="240" height="188" rx="16" fill="#0D131A" stroke="#212A36"/>
  <text x="552" y="262" fill="#C8D0DB" font-size="14" font-family="Arial, sans-serif">Priorites sprint suivant</text>
  <rect x="552" y="280" width="192" height="26" rx="8" fill="#101822" stroke="#263243"/>
  <rect x="552" y="316" width="192" height="26" rx="8" fill="#101822" stroke="#263243"/>
  <rect x="552" y="352" width="192" height="26" rx="8" fill="#101822" stroke="#263243"/>
  <text x="566" y="297" fill="#9CA9BA" font-size="12" font-family="Arial, sans-serif">Cluster finance B2B</text>
  <text x="566" y="333" fill="#9CA9BA" font-size="12" font-family="Arial, sans-serif">Template guides experts</text>
  <text x="566" y="369" fill="#9CA9BA" font-size="12" font-family="Arial, sans-serif">Digital PR secteur SaaS</text>
</svg>
