<svg width="800" height="440" viewBox="0 0 800 440" fill="none" xmlns="http://www.w3.org/2000/svg">
  <rect width="800" height="440" rx="24" fill="#07090C"/>
  <rect x="24" y="24" width="752" height="48" rx="12" fill="#10141A" stroke="#1B2430"/>
  <circle cx="52" cy="48" r="6" fill="#FFE600"/>
  <circle cx="72" cy="48" r="6" fill="#3A4250"/>
  <circle cx="92" cy="48" r="6" fill="#3A4250"/>
  <text x="120" y="54" fill="#DDE2EA" font-size="18" font-family="Arial, sans-serif">SEO Technique Dashboard</text>

  <rect x="24" y="92" width="364" height="324" rx="14" fill="#10141A" stroke="#212A36"/>
  <text x="48" y="126" fill="#C7CFDA" font-size="16" font-family="Arial, sans-serif">Core Web Vitals</text>
  <rect x="48" y="146" width="316" height="14" rx="7" fill="#1A2330"/>
  <rect x="48" y="146" width="248" height="14" rx="7" fill="#B9E900"/>
  <text x="48" y="186" fill="#98A3B3" font-size="14" font-family="Arial, sans-serif">LCP</text>
  <rect x="100" y="176" width="260" height="10" rx="5" fill="#1E2734"/>
  <rect x="100" y="176" width="210" height="10" rx="5" fill="#FFE600"/>
  <text x="48" y="216" fill="#98A3B3" font-size="14" font-family="Arial, sans-serif">INP</text>
  <rect x="100" y="206" width="260" height="10" rx="5" fill="#1E2734"/>
  <rect x="100" y="206" width="180" height="10" rx="5" fill="#99BF00"/>
  <text x="48" y="246" fill="#98A3B3" font-size="14" font-family="Arial, sans-serif">CLS</text>
  <rect x="100" y="236" width="260" height="10" rx="5" fill="#1E2734"/>
  <rect x="100" y="236" width="236" height="10" rx="5" fill="#FFE600"/>

  <rect x="412" y="92" width="364" height="152" rx="14" fill="#10141A" stroke="#212A36"/>
  <text x="436" y="126" fill="#C7CFDA" font-size="16" font-family="Arial, sans-serif">Indexation</text>
  <rect x="436" y="144" width="316" height="76" rx="10" fill="#0D131A" stroke="#1D2B37"/>
  <text x="456" y="174" fill="#FFE600" font-size="20" font-family="Arial, sans-serif">98.4% pages indexees</text>
  <text x="456" y="200" fill="#8F9CAF" font-size="14" font-family="Arial, sans-serif">Erreurs crawl: 23 / 12 842 urls</text>

  <rect x="412" y="264" width="364" height="152" rx="14" fill="#10141A" stroke="#212A36"/>
  <text x="436" y="298" fill="#C7CFDA" font-size="16" font-family="Arial, sans-serif">Analyse de logs</text>
  <polyline points="438,376 478,346 518,360 558,326 598,336 638,300 678,316 718,286 752,298" fill="none" stroke="#FFE600" stroke-width="3"/>
  <line x1="438" y1="376" x2="752" y2="376" stroke="#2C3745"/>
</svg>
