<svg width="800" height="440" viewBox="0 0 800 440" fill="none" xmlns="http://www.w3.org/2000/svg">
  <rect width="800" height="440" rx="24" fill="#07090C"/>
  <rect x="24" y="24" width="752" height="48" rx="12" fill="#10141A" stroke="#1B2430"/>
  <circle cx="52" cy="48" r="6" fill="#FFE600"/>
  <circle cx="72" cy="48" r="6" fill="#3A4250"/>
  <circle cx="92" cy="48" r="6" fill="#3A4250"/>
  <text x="120" y="54" fill="#DDE2EA" font-size="18" font-family="Arial, sans-serif">ROI Tracking Hub</text>

  <rect x="32" y="90" width="736" height="130" rx="16" fill="#0D131A" stroke="#212A36"/>
  <rect x="52" y="112" width="160" height="86" rx="12" fill="#101822" stroke="#283344"/>
  <rect x="232" y="112" width="160" height="86" rx="12" fill="#101822" stroke="#283344"/>
  <rect x="412" y="112" width="160" height="86" rx="12" fill="#101822" stroke="#283344"/>
  <rect x="592" y="112" width="156" height="86" rx="12" fill="#101822" stroke="#283344"/>

  <text x="68" y="142" fill="#9DABBC" font-size="12" font-family="Arial, sans-serif">Revenue SEO</text>
  <text x="68" y="174" fill="#FFE600" font-size="24" font-family="Arial, sans-serif">+27%</text>

  <text x="248" y="142" fill="#9DABBC" font-size="12" font-family="Arial, sans-serif">Google visibility</text>
  <text x="248" y="174" fill="#FFE600" font-size="24" font-family="Arial, sans-serif">+19%</text>

  <text x="428" y="142" fill="#9DABBC" font-size="12" font-family="Arial, sans-serif">AI mentions</text>
  <text x="428" y="174" fill="#FFE600" font-size="24" font-family="Arial, sans-serif">+41%</text>

  <text x="608" y="142" fill="#9DABBC" font-size="12" font-family="Arial, sans-serif">Conv. rate</text>
  <text x="608" y="174" fill="#FFE600" font-size="24" font-family="Arial, sans-serif">3.8%</text>

  <rect x="32" y="236" width="476" height="184" rx="16" fill="#0D131A" stroke="#212A36"/>
  <text x="56" y="268" fill="#C7CFDA" font-size="15" font-family="Arial, sans-serif">Visibility by channel</text>
  <line x1="56" y1="390" x2="486" y2="390" stroke="#2D3846"/>
  <rect x="88" y="310" width="54" height="80" rx="8" fill="#FFE600"/>
  <rect x="170" y="286" width="54" height="104" rx="8" fill="#E2C900"/>
  <rect x="252" y="324" width="54" height="66" rx="8" fill="#CDB500"/>
  <rect x="334" y="270" width="54" height="120" rx="8" fill="#F0D800"/>
  <rect x="416" y="296" width="54" height="94" rx="8" fill="#FFE94A"/>

  <rect x="528" y="236" width="240" height="184" rx="16" fill="#0D131A" stroke="#212A36"/>
  <text x="552" y="268" fill="#C7CFDA" font-size="15" font-family="Arial, sans-serif">AI Engine split</text>
  <rect x="552" y="286" width="190" height="16" rx="8" fill="#1E2734"/>
  <rect x="552" y="286" width="132" height="16" rx="8" fill="#FFE600"/>
  <text x="552" y="314" fill="#9DABBC" font-size="12" font-family="Arial, sans-serif">ChatGPT 52%</text>
  <rect x="552" y="330" width="190" height="16" rx="8" fill="#1E2734"/>
  <rect x="552" y="330" width="86" height="16" rx="8" fill="#E0C700"/>
  <text x="552" y="358" fill="#9DABBC" font-size="12" font-family="Arial, sans-serif">Gemini 34%</text>
  <rect x="552" y="374" width="190" height="16" rx="8" fill="#1E2734"/>
  <rect x="552" y="374" width="56" height="16" rx="8" fill="#D3BB00"/>
  <text x="552" y="402" fill="#9DABBC" font-size="12" font-family="Arial, sans-serif">Perplexity 22%</text>
</svg>
