<svg width="800" height="440" viewBox="0 0 800 440" fill="none" xmlns="http://www.w3.org/2000/svg">
  <rect width="800" height="440" rx="24" fill="#07090C"/>
  <rect x="24" y="24" width="752" height="48" rx="12" fill="#10141A" stroke="#1B2430"/>
  <circle cx="52" cy="48" r="6" fill="#FFE600"/>
  <circle cx="72" cy="48" r="6" fill="#3A4250"/>
  <circle cx="92" cy="48" r="6" fill="#3A4250"/>
  <text x="120" y="54" fill="#DDE2EA" font-size="18" font-family="Arial, sans-serif">Authority Growth</text>

  <rect x="32" y="90" width="356" height="330" rx="16" fill="#0D131A" stroke="#212A36"/>
  <text x="56" y="124" fill="#C7CFDA" font-size="15" font-family="Arial, sans-serif">Referring domains</text>
  <polyline points="56,344 96,330 136,320 176,298 216,278 256,250 296,220 336,190" fill="none" stroke="#FFE600" stroke-width="4"/>
  <line x1="56" y1="344" x2="336" y2="344" stroke="#2D3846"/>
  <line x1="56" y1="344" x2="56" y2="156" stroke="#2D3846"/>
  <text x="56" y="372" fill="#9EABBC" font-size="12" font-family="Arial, sans-serif">Jan</text>
  <text x="154" y="372" fill="#9EABBC" font-size="12" font-family="Arial, sans-serif">Mar</text>
  <text x="252" y="372" fill="#9EABBC" font-size="12" font-family="Arial, sans-serif">May</text>
  <text x="326" y="372" fill="#9EABBC" font-size="12" font-family="Arial, sans-serif">Jul</text>

  <rect x="412" y="90" width="356" height="156" rx="16" fill="#0D131A" stroke="#212A36"/>
  <text x="436" y="122" fill="#C7CFDA" font-size="15" font-family="Arial, sans-serif">Community Activation</text>
  <rect x="436" y="138" width="310" height="88" rx="10" fill="#101822" stroke="#283344"/>
  <circle cx="464" cy="166" r="8" fill="#FFE600"/>
  <text x="482" y="171" fill="#DCE3ED" font-size="13" font-family="Arial, sans-serif">Reddit mentions: +48 this month</text>
  <circle cx="464" cy="194" r="8" fill="#C5EF00"/>
  <text x="482" y="199" fill="#DCE3ED" font-size="13" font-family="Arial, sans-serif">Topical threads: 12 active topics</text>

  <rect x="412" y="264" width="356" height="156" rx="16" fill="#0D131A" stroke="#212A36"/>
  <text x="436" y="296" fill="#C7CFDA" font-size="15" font-family="Arial, sans-serif">Citations &amp; NAP</text>
  <rect x="436" y="312" width="310" height="88" rx="10" fill="#101822" stroke="#283344"/>
  <rect x="456" y="330" width="270" height="12" rx="6" fill="#1E2734"/>
  <rect x="456" y="330" width="218" height="12" rx="6" fill="#FFE600"/>
  <rect x="456" y="352" width="270" height="12" rx="6" fill="#1E2734"/>
  <rect x="456" y="352" width="202" height="12" rx="6" fill="#C4EC00"/>
  <text x="456" y="387" fill="#9EABBC" font-size="12" font-family="Arial, sans-serif">Consistency score: 91/100</text>
</svg>
