<svg width="800" height="440" viewBox="0 0 800 440" fill="none" xmlns="http://www.w3.org/2000/svg">
  <rect width="800" height="440" rx="24" fill="#07090C"/>
  <rect x="24" y="24" width="752" height="48" rx="12" fill="#10141A" stroke="#1B2430"/>
  <circle cx="52" cy="48" r="6" fill="#FFE600"/>
  <circle cx="72" cy="48" r="6" fill="#3A4250"/>
  <circle cx="92" cy="48" r="6" fill="#3A4250"/>
  <text x="120" y="54" fill="#DDE2EA" font-size="18" font-family="Arial, sans-serif">Content Factory</text>

  <rect x="32" y="90" width="736" height="330" rx="16" fill="#0D131A" stroke="#212A36"/>
  <rect x="52" y="112" width="220" height="130" rx="12" fill="#101822" stroke="#2A3441"/>
  <rect x="290" y="112" width="220" height="130" rx="12" fill="#101822" stroke="#2A3441"/>
  <rect x="528" y="112" width="220" height="130" rx="12" fill="#101822" stroke="#2A3441"/>

  <rect x="52" y="256" width="220" height="130" rx="12" fill="#101822" stroke="#2A3441"/>
  <rect x="290" y="256" width="220" height="130" rx="12" fill="#101822" stroke="#2A3441"/>
  <rect x="528" y="256" width="220" height="130" rx="12" fill="#101822" stroke="#2A3441"/>

  <rect x="68" y="128" width="86" height="10" rx="5" fill="#FFE600"/>
  <rect x="68" y="146" width="190" height="8" rx="4" fill="#2D3948"/>
  <rect x="68" y="162" width="172" height="8" rx="4" fill="#2D3948"/>
  <rect x="68" y="178" width="146" height="8" rx="4" fill="#2D3948"/>
  <text x="68" y="214" fill="#A3AFBF" font-size="12" font-family="Arial, sans-serif">Fiche produit - Intentions</text>

  <rect x="306" y="128" width="86" height="10" rx="5" fill="#FFE600"/>
  <rect x="306" y="146" width="190" height="8" rx="4" fill="#2D3948"/>
  <rect x="306" y="162" width="172" height="8" rx="4" fill="#2D3948"/>
  <rect x="306" y="178" width="146" height="8" rx="4" fill="#2D3948"/>
  <text x="306" y="214" fill="#A3AFBF" font-size="12" font-family="Arial, sans-serif">Page univers - Topic map</text>

  <rect x="544" y="128" width="86" height="10" rx="5" fill="#FFE600"/>
  <rect x="544" y="146" width="190" height="8" rx="4" fill="#2D3948"/>
  <rect x="544" y="162" width="172" height="8" rx="4" fill="#2D3948"/>
  <rect x="544" y="178" width="146" height="8" rx="4" fill="#2D3948"/>
  <text x="544" y="214" fill="#A3AFBF" font-size="12" font-family="Arial, sans-serif">Categorie - Maillage</text>

  <text x="68" y="344" fill="#FFE600" font-size="22" font-family="Arial, sans-serif">+120</text>
  <text x="132" y="344" fill="#B1BAC7" font-size="13" font-family="Arial, sans-serif">pages/mois produites</text>
  <text x="306" y="344" fill="#FFE600" font-size="22" font-family="Arial, sans-serif">3.7x</text>
  <text x="352" y="344" fill="#B1BAC7" font-size="13" font-family="Arial, sans-serif">cadence editoriale</text>
  <text x="544" y="344" fill="#FFE600" font-size="22" font-family="Arial, sans-serif">88%</text>
  <text x="594" y="344" fill="#B1BAC7" font-size="13" font-family="Arial, sans-serif">briefs automatisees</text>
</svg>
