<svg width="800" height="440" viewBox="0 0 800 440" fill="none" xmlns="http://www.w3.org/2000/svg">
  <rect width="800" height="440" rx="24" fill="#07090C"/>
  <rect x="24" y="24" width="752" height="48" rx="12" fill="#10141A" stroke="#1B2430"/>
  <circle cx="52" cy="48" r="6" fill="#FFE600"/>
  <circle cx="72" cy="48" r="6" fill="#3A4250"/>
  <circle cx="92" cy="48" r="6" fill="#3A4250"/>
  <text x="120" y="54" fill="#DDE2EA" font-size="18" font-family="Arial, sans-serif">Architecture Catalogue</text>

  <rect x="36" y="94" width="728" height="322" rx="16" fill="#0D131A" stroke="#212A36"/>
  <line x1="400" y1="132" x2="220" y2="198" stroke="#3E4A59" stroke-width="2"/>
  <line x1="400" y1="132" x2="400" y2="198" stroke="#3E4A59" stroke-width="2"/>
  <line x1="400" y1="132" x2="580" y2="198" stroke="#3E4A59" stroke-width="2"/>

  <line x1="220" y1="198" x2="140" y2="270" stroke="#374354" stroke-width="2"/>
  <line x1="220" y1="198" x2="220" y2="270" stroke="#374354" stroke-width="2"/>
  <line x1="220" y1="198" x2="300" y2="270" stroke="#374354" stroke-width="2"/>

  <line x1="400" y1="198" x2="360" y2="270" stroke="#374354" stroke-width="2"/>
  <line x1="400" y1="198" x2="440" y2="270" stroke="#374354" stroke-width="2"/>

  <line x1="580" y1="198" x2="500" y2="270" stroke="#374354" stroke-width="2"/>
  <line x1="580" y1="198" x2="580" y2="270" stroke="#374354" stroke-width="2"/>
  <line x1="580" y1="198" x2="660" y2="270" stroke="#374354" stroke-width="2"/>

  <rect x="332" y="112" width="136" height="40" rx="10" fill="#FFE600"/>
  <text x="359" y="137" fill="#101318" font-size="15" font-family="Arial, sans-serif">Homepage</text>

  <rect x="152" y="178" width="136" height="38" rx="10" fill="#131C26" stroke="#2A3645"/>
  <rect x="332" y="178" width="136" height="38" rx="10" fill="#131C26" stroke="#2A3645"/>
  <rect x="512" y="178" width="136" height="38" rx="10" fill="#131C26" stroke="#2A3645"/>
  <text x="174" y="202" fill="#D5DCE6" font-size="14" font-family="Arial, sans-serif">Category A</text>
  <text x="354" y="202" fill="#D5DCE6" font-size="14" font-family="Arial, sans-serif">Category B</text>
  <text x="534" y="202" fill="#D5DCE6" font-size="14" font-family="Arial, sans-serif">Category C</text>

  <rect x="84" y="250" width="112" height="34" rx="9" fill="#101822" stroke="#263241"/>
  <rect x="164" y="250" width="112" height="34" rx="9" fill="#101822" stroke="#263241"/>
  <rect x="244" y="250" width="112" height="34" rx="9" fill="#101822" stroke="#263241"/>
  <rect x="304" y="250" width="112" height="34" rx="9" fill="#101822" stroke="#263241"/>
  <rect x="384" y="250" width="112" height="34" rx="9" fill="#101822" stroke="#263241"/>
  <rect x="444" y="250" width="112" height="34" rx="9" fill="#101822" stroke="#263241"/>
  <rect x="524" y="250" width="112" height="34" rx="9" fill="#101822" stroke="#263241"/>
  <rect x="604" y="250" width="112" height="34" rx="9" fill="#101822" stroke="#263241"/>

  <rect x="56" y="308" width="308" height="84" rx="12" fill="#10141A" stroke="#1D2734"/>
  <text x="78" y="338" fill="#C8D0DB" font-size="14" font-family="Arial, sans-serif">Spider traps detectes: 4</text>
  <text x="78" y="362" fill="#8F9CAF" font-size="13" font-family="Arial, sans-serif">Facettes indexables limitees et canonicals</text>

  <rect x="436" y="308" width="308" height="84" rx="12" fill="#10141A" stroke="#1D2734"/>
  <text x="458" y="338" fill="#C8D0DB" font-size="14" font-family="Arial, sans-serif">Flux PageRank interne: +32%</text>
  <text x="458" y="362" fill="#8F9CAF" font-size="13" font-family="Arial, sans-serif">Priorite pages categories business</text>
</svg>
